<svg width="895" height="465" viewBox="0 0 895 465" fill="none" xmlns="http://www.w3.org/2000/svg">
<path d="M792.646 511.249C815.054 406.135 894.749 418.313 809.755 287.266C670.83 73.065 748.338 143.095 482.162 86.3547C386.12 65.8815 167.995 88.3723 155.335 147.763C129.83 267.409 57.5837 249.982 29.6521 381.012C14.6797 451.249 27.0641 516.684 145.983 542.034C264.903 567.384 559.562 659.289 649.67 633.2C731.784 609.425 770.239 616.363 792.646 511.249Z" fill="#300152"/>
<path d="M734.2 234.857C742.003 326.617 781.346 344.223 714.551 444.882C658.152 529.873 631.676 515.561 520.211 488.154C454.115 471.902 287.25 544.565 237.171 512.22C151.883 457.133 125.344 244.64 179.364 163.181C225.074 94.2543 284.515 114.856 366.875 107.853C449.236 100.85 539.456 94.4657 598.682 127.528C652.654 157.657 726.398 143.096 734.2 234.857Z" fill="#500071"/>
<path d="M253.5 285.5C246.598 254.049 208.689 227.313 233.968 187.889C255.312 154.6 318.003 118.24 367.641 120.503C397.074 121.845 478.398 118.703 502.757 120.296C534.199 122.352 560.006 126.958 581.002 133.261C663.834 158.13 672.34 281.602 656.032 307.053C638.734 334.048 564.398 333.14 528.761 340.96C493.124 348.78 469.5 389.5 367.64 383.5C289.5 378.897 260.402 316.951 253.5 285.5Z" fill="#60017F"/>
</svg>
