<svg width="895" height="216" viewBox="0 0 895 216" fill="none" xmlns="http://www.w3.org/2000/svg">
<path d="M792.646 39.2493C815.054 -65.8648 894.749 -53.6869 809.755 -184.734C670.83 -398.935 748.338 -328.905 482.162 -385.645C386.12 -406.119 167.995 -383.628 155.335 -324.237C129.83 -204.591 57.5837 -222.018 29.6521 -90.9883C14.6797 -20.7508 27.0641 44.6839 145.983 70.034C264.903 95.3841 559.562 187.289 649.67 161.2C731.784 137.425 770.239 144.363 792.646 39.2493Z" fill="#300152"/>
<path d="M734.2 -237.143C742.003 -145.383 781.346 -127.777 714.551 -27.1184C658.152 57.8735 631.676 43.5607 520.211 16.1538C454.115 -0.0976899 287.25 72.5646 237.171 40.2198C151.883 -14.8665 125.344 -227.36 179.364 -308.819C225.074 -377.746 284.515 -357.144 366.875 -364.147C449.236 -371.15 539.456 -377.534 598.682 -344.472C652.654 -314.343 726.398 -328.904 734.2 -237.143Z" fill="#500071"/>
</svg>
