<svg id="visual" viewBox="0 0 1920 1080" width="1920" height="1080" xmlns="http://www.w3.org/2000/svg" xmlns:xlink="http://www.w3.org/1999/xlink" version="1.1"><rect x="0" y="0" width="1920" height="1080" fill="#000000"></rect><defs><linearGradient id="grad1_0" x1="43.8%" y1="0%" x2="100%" y2="100%"><stop offset="14.444444444444446%" stop-color="#600180" stop-opacity="1"></stop><stop offset="85.55555555555554%" stop-color="#600180" stop-opacity="1"></stop></linearGradient></defs><defs><linearGradient id="grad1_1" x1="43.8%" y1="0%" x2="100%" y2="100%"><stop offset="14.444444444444446%" stop-color="#600180" stop-opacity="1"></stop><stop offset="85.55555555555554%" stop-color="#400061" stop-opacity="1"></stop></linearGradient></defs><defs><linearGradient id="grad1_2" x1="43.8%" y1="0%" x2="100%" y2="100%"><stop offset="14.444444444444446%" stop-color="#000000" stop-opacity="1"></stop><stop offset="85.55555555555554%" stop-color="#400061" stop-opacity="1"></stop></linearGradient></defs><defs><linearGradient id="grad2_0" x1="0%" y1="0%" x2="56.3%" y2="100%"><stop offset="14.444444444444446%" stop-color="#600180" stop-opacity="1"></stop><stop offset="85.55555555555554%" stop-color="#600180" stop-opacity="1"></stop></linearGradient></defs><defs><linearGradient id="grad2_1" x1="0%" y1="0%" x2="56.3%" y2="100%"><stop offset="14.444444444444446%" stop-color="#400061" stop-opacity="1"></stop><stop offset="85.55555555555554%" stop-color="#600180" stop-opacity="1"></stop></linearGradient></defs><defs><linearGradient id="grad2_2" x1="0%" y1="0%" x2="56.3%" y2="100%"><stop offset="14.444444444444446%" stop-color="#400061" stop-opacity="1"></stop><stop offset="85.55555555555554%" stop-color="#000000" stop-opacity="1"></stop></linearGradient></defs><g transform="translate(1920, 0)"><path d="M0 1026C-201 1011.6 -402 997.2 -513 888.5C-624 779.8 -644.8 576.8 -715.3 413C-785.8 249.2 -905.9 124.6 -1026 0L0 0Z" fill="#300053"></path><path d="M0 684C-134 674.4 -268 664.8 -342 592.4C-416 519.9 -429.9 384.5 -476.9 275.3C-523.9 166.1 -603.9 83.1 -684 0L0 0Z" fill="#500071"></path><path d="M0 342C-67 337.2 -134 332.4 -171 296.2C-208 259.9 -214.9 192.3 -238.4 137.7C-261.9 83.1 -302 41.5 -342 0L0 0Z" fill="#600180"></path></g><g transform="translate(0, 1080)"><path d="M0 -1026C177.1 -996.9 354.3 -967.8 511.5 -885.9C668.7 -804.1 806.1 -669.5 888.5 -513C971 -356.5 998.5 -178.3 1026 0L0 0Z" fill="#300053"></path><path d="M0 -684C118.1 -664.6 236.2 -645.2 341 -590.6C445.8 -536.1 537.4 -446.3 592.4 -342C647.3 -237.7 665.7 -118.8 684 0L0 0Z" fill="#500071"></path><path d="M0 -342C59 -332.3 118.1 -322.6 170.5 -295.3C222.9 -268 268.7 -223.2 296.2 -171C323.7 -118.8 332.8 -59.4 342 0L0 0Z" fill="#600180"></path></g></svg>